{
	"asset":{
		"version":"2.0",
		"generator":"Created using the official Cinema 4D glTF Exporter 1.000x284978"
	},
	"images":[{
		"uri":"data:image/jpeg;base64,"
	},
	{
		"uri":"data:image/jpeg;base64,"
	}],
	"scenes":[{
		"nodes":[0]
	}],
	"nodes":[{
		"name":"Extrude.1",
		"scale":[1.0,
		1.0,
		1.0],
		"translation":[0.0,
		0.0,
		2.686932325363159],
		"rotation":[0.0,
		0.0,
		0.0,
		-1.0],
		"mesh":0
	}],
	"materials":[{
		"occlusionTexture":{
			"index":1,
			"strength":1.0
		},
		"pbrMetallicRoughness":{
			"baseColorTexture":{
				"index":0
			},
			"baseColorFactor":[0.8,
			0.8,
			0.8,
			1.0],
			"metallicFactor":0.0,
			"roughnessFactor":0.5
		},
		"emissiveFactor":[0.0,
		0.0,
		0.0],
		"alphaMode":"OPAQUE",
		"doubleSided":false,
		"name":"Extrude"
	}],
	"meshes":[{
		"name":"Extrude.1",
		"primitives":[{
			"attributes":{
				"POSITION":1,
				"NORMAL":2,
				"TEXCOORD_0":3
			},
			"indices":0,
			"material":0
		}]
	}],
	"accessors":[{
		"max":[1146],
		"bufferView":0,
		"type":"SCALAR",
		"componentType":5123,
		"count":3246,
		"byteOffset":0,
		"min":[0]
	},
	{
		"max":[50.0,
		50.0,
		3.5733683109283449],
		"bufferView":1,
		"type":"VEC3",
		"componentType":5126,
		"count":1147,
		"byteOffset":0,
		"min":[-50.0,
		-50.0,
		-8.947233200073243]
	},
	{
		"max":[1.0,
		1.0,
		1.0],
		"bufferView":1,
		"type":"VEC3",
		"componentType":5126,
		"count":1147,
		"byteOffset":12,
		"min":[-1.0,
		-1.0,
		-1.0]
	},
	{
		"max":[0.9980506896972656,
		0.955087423324585],
		"bufferView":1,
		"type":"VEC2",
		"componentType":5126,
		"count":1147,
		"byteOffset":24,
		"min":[0.0006529472302645445,
		0.0006529472302645445]
	}],
	"bufferViews":[{
		"buffer":0,
		"byteOffset":0,
		"byteLength":6492,
		"target":34963
	},
	{
		"buffer":0,
		"byteOffset":6492,
		"byteLength":36704,
		"target":34962,
		"byteStride":32
	}],
	"buffers":[{
		"uri":"data:application/octet-stream;base64,",
		"byteLength":43196
	}],
	"samplers":[{
		"magFilter":9729,
		"minFilter":9729,
		"wrapS":10497,
		"wrapT":10497
	},
	{
		"magFilter":9729,
		"minFilter":9729,
		"wrapS":10497,
		"wrapT":10497
	}],
	"textures":[{
		"sampler":0,
		"source":0
	},
	{
		"sampler":1,
		"source":1
	}]
}