{
    "asset" : {
        "generator" : "Khronos glTF Blender I/O v1.7.33",
        "version" : "2.0"
    },
    "scene" : 0,
    "scenes" : [
        {
            "name" : "Scene",
            "nodes" : [
                0,
                1,
                2
            ]
        }
    ],
    "nodes" : [
        {
            "mesh" : 0,
            "name" : "Chest_02_003",
            "translation" : [
                0.43634870648384094,
                0.4548729956150055,
                -0.41080671548843384
            ]
        },
        {
            "mesh" : 1,
            "name" : "Chest_02_002"
        },
        {
            "mesh" : 2,
            "name" : "Chest_02_001",
            "translation" : [
                0.029593441635370255,
                0.4857995808124542,
                0.4137381613254547
            ]
        }
    ],
    "materials" : [
        {
            "doubleSided" : true,
            "name" : "Checker",
            "normalTexture" : {
                "index" : 0
            },
            "pbrMetallicRoughness" : {
                "baseColorTexture" : {
                    "index" : 1
                },
                "metallicRoughnessTexture" : {
                    "index" : 2
                }
            }
        }
    ],
    "meshes" : [
        {
            "name" : "Cube.001",
            "primitives" : [
                {
                    "attributes" : {
                        "POSITION" : 0,
                        "NORMAL" : 1,
                        "TEXCOORD_0" : 2
                    },
                    "indices" : 3,
                    "material" : 0
                }
            ]
        },
        {
            "name" : "Cylinder.001",
            "primitives" : [
                {
                    "attributes" : {
                        "POSITION" : 4,
                        "NORMAL" : 5,
                        "TEXCOORD_0" : 6
                    },
                    "indices" : 7,
                    "material" : 0
                }
            ]
        },
        {
            "name" : "Cube.002",
            "primitives" : [
                {
                    "attributes" : {
                        "POSITION" : 8,
                        "NORMAL" : 9,
                        "TEXCOORD_0" : 10
                    },
                    "indices" : 11,
                    "material" : 0
                }
            ]
        }
    ],
    "textures" : [
        {
            "sampler" : 0,
            "source" : 0
        },
        {
            "sampler" : 0,
            "source" : 1
        },
        {
            "sampler" : 0,
            "source" : 2
        }
    ],
    "images" : [
        {
            "bufferView" : 4,
            "mimeType" : "image/png",
            "name" : "Chest_02_Normal"
        },
        {
            "bufferView" : 5,
            "mimeType" : "image/png",
            "name" : "Chest_02_BaseColor"
        },
        {
            "bufferView" : 6,
            "mimeType" : "image/png",
            "name" : "Chest_02_Metallic.png-Chest_02_Roughness.png"
        }
    ],
    "accessors" : [
        {
            "bufferView" : 0,
            "componentType" : 5126,
            "count" : 956,
            "max" : [
                0.12222123146057129,
                0.2431897521018982,
                0.8289141058921814
            ],
            "min" : [
                -0.9945537447929382,
                -0.0023519396781921387,
                -0.006645768880844116
            ],
            "type" : "VEC3"
        },
        {
            "bufferView" : 1,
            "componentType" : 5126,
            "count" : 956,
            "type" : "VEC3"
        },
        {
            "bufferView" : 2,
            "componentType" : 5126,
            "count" : 956,
            "type" : "VEC2"
        },
        {
            "bufferView" : 3,
            "componentType" : 5123,
            "count" : 1938,
            "type" : "SCALAR"
        },
        {
            "bufferView" : 7,
            "componentType" : 5126,
            "count" : 2047,
            "max" : [
                0.5741043090820312,
                0.4569516181945801,
                0.4321247637271881
            ],
            "min" : [
                -0.5741043090820312,
                5.97834587097168e-05,
                -0.41485780477523804
            ],
            "type" : "VEC3"
        },
        {
            "bufferView" : 8,
            "componentType" : 5126,
            "count" : 2047,
            "type" : "VEC3"
        },
        {
            "bufferView" : 9,
            "componentType" : 5126,
            "count" : 2047,
            "type" : "VEC2"
        },
        {
            "bufferView" : 10,
            "componentType" : 5123,
            "count" : 7650,
            "type" : "SCALAR"
        },
        {
            "bufferView" : 11,
            "componentType" : 5126,
            "count" : 377,
            "max" : [
                5.587935447692871e-09,
                0.0033492445945739746,
                0.003239363431930542
            ],
            "min" : [
                -0.05918661504983902,
                -0.135358989238739,
                -0.0032394826412200928
            ],
            "type" : "VEC3"
        },
        {
            "bufferView" : 12,
            "componentType" : 5126,
            "count" : 377,
            "type" : "VEC3"
        },
        {
            "bufferView" : 13,
            "componentType" : 5126,
            "count" : 377,
            "type" : "VEC2"
        },
        {
            "bufferView" : 14,
            "componentType" : 5123,
            "count" : 1308,
            "type" : "SCALAR"
        }
    ],
    "bufferViews" : [
        {
            "buffer" : 0,
            "byteLength" : 11472,
            "byteOffset" : 0
        },
        {
            "buffer" : 0,
            "byteLength" : 11472,
            "byteOffset" : 11472
        },
        {
            "buffer" : 0,
            "byteLength" : 7648,
            "byteOffset" : 22944
        },
        {
            "buffer" : 0,
            "byteLength" : 3876,
            "byteOffset" : 30592
        },
        {
            "buffer" : 0,
            "byteLength" : 353881,
            "byteOffset" : 34468
        },
        {
            "buffer" : 0,
            "byteLength" : 336312,
            "byteOffset" : 388352
        },
        {
            "buffer" : 0,
            "byteLength" : 320530,
            "byteOffset" : 724664
        },
        {
            "buffer" : 0,
            "byteLength" : 24564,
            "byteOffset" : 1045196
        },
        {
            "buffer" : 0,
            "byteLength" : 24564,
            "byteOffset" : 1069760
        },
        {
            "buffer" : 0,
            "byteLength" : 16376,
            "byteOffset" : 1094324
        },
        {
            "buffer" : 0,
            "byteLength" : 15300,
            "byteOffset" : 1110700
        },
        {
            "buffer" : 0,
            "byteLength" : 4524,
            "byteOffset" : 1126000
        },
        {
            "buffer" : 0,
            "byteLength" : 4524,
            "byteOffset" : 1130524
        },
        {
            "buffer" : 0,
            "byteLength" : 3016,
            "byteOffset" : 1135048
        },
        {
            "buffer" : 0,
            "byteLength" : 2616,
            "byteOffset" : 1138064
        }
    ],
    "samplers" : [
        {
            "magFilter" : 9729,
            "minFilter" : 9987
        }
    ],
    "buffers" : [
        {
            "byteLength" : 1140680,
            "uri" : "data:application/octet-stream;base64,"
        }
    ]
}
