{
    "asset" : {
        "generator" : "Khronos glTF Blender I/O v1.7.33",
        "version" : "2.0"
    },
    "scene" : 0,
    "scenes" : [
        {
            "name" : "Scene",
            "nodes" : [
                0
            ]
        }
    ],
    "nodes" : [
        {
            "mesh" : 0,
            "name" : "Crystal_type3",
            "rotation" : [
                0.7071068286895752,
                0,
                0,
                0.7071067094802856
            ],
            "scale" : [
                1.2696294784545898,
                1.2696294784545898,
                1.2696294784545898
            ],
            "translation" : [
                0,
                1.594635009765625,
                0
            ]
        }
    ],
    "materials" : [
        {
            "doubleSided" : true,
            "emissiveFactor" : [
                1,
                1,
                1
            ],
            "emissiveTexture" : {
                "index" : 0
            },
            "name" : "Crystal_type_3_",
            "normalTexture" : {
                "index" : 1
            },
            "pbrMetallicRoughness" : {
                "baseColorTexture" : {
                    "index" : 2
                },
                "metallicRoughnessTexture" : {
                    "index" : 3
                }
            }
        }
    ],
    "meshes" : [
        {
            "name" : "Mesh",
            "primitives" : [
                {
                    "attributes" : {
                        "POSITION" : 0,
                        "NORMAL" : 1,
                        "TEXCOORD_0" : 2
                    },
                    "indices" : 3,
                    "material" : 0
                }
            ]
        }
    ],
    "textures" : [
        {
            "sampler" : 0,
            "source" : 0
        },
        {
            "sampler" : 0,
            "source" : 1
        },
        {
            "sampler" : 0,
            "source" : 2
        },
        {
            "sampler" : 0,
            "source" : 3
        }
    ],
    "images" : [
        {
            "bufferView" : 4,
            "mimeType" : "image/png",
            "name" : "Crystal_type_3_Emissive"
        },
        {
            "bufferView" : 5,
            "mimeType" : "image/png",
            "name" : "Crystal_type_3_Normal_OpenGL"
        },
        {
            "bufferView" : 6,
            "mimeType" : "image/png",
            "name" : "Crystal_type_3_Base_Color"
        },
        {
            "bufferView" : 7,
            "mimeType" : "image/png",
            "name" : "Crystal_type_3_Metallic-Crystal_type_3_Roughness"
        }
    ],
    "accessors" : [
        {
            "bufferView" : 0,
            "componentType" : 5126,
            "count" : 378,
            "max" : [
                1.0958137512207031,
                1.0138189792633057,
                1.26578950881958
            ],
            "min" : [
                -1.0958137512207031,
                -1.0138189792633057,
                -1.26578950881958
            ],
            "type" : "VEC3"
        },
        {
            "bufferView" : 1,
            "componentType" : 5126,
            "count" : 378,
            "type" : "VEC3"
        },
        {
            "bufferView" : 2,
            "componentType" : 5126,
            "count" : 378,
            "type" : "VEC2"
        },
        {
            "bufferView" : 3,
            "componentType" : 5123,
            "count" : 636,
            "type" : "SCALAR"
        }
    ],
    "bufferViews" : [
        {
            "buffer" : 0,
            "byteLength" : 4536,
            "byteOffset" : 0
        },
        {
            "buffer" : 0,
            "byteLength" : 4536,
            "byteOffset" : 4536
        },
        {
            "buffer" : 0,
            "byteLength" : 3024,
            "byteOffset" : 9072
        },
        {
            "buffer" : 0,
            "byteLength" : 1272,
            "byteOffset" : 12096
        },
        {
            "buffer" : 0,
            "byteLength" : 14354,
            "byteOffset" : 13368
        },
        {
            "buffer" : 0,
            "byteLength" : 189765,
            "byteOffset" : 27724
        },
        {
            "buffer" : 0,
            "byteLength" : 282815,
            "byteOffset" : 217492
        },
        {
            "buffer" : 0,
            "byteLength" : 35658,
            "byteOffset" : 500308
        }
    ],
    "samplers" : [
        {
            "magFilter" : 9729,
            "minFilter" : 9987
        }
    ],
    "buffers" : [
        {
            "byteLength" : 535968,
            "uri" : "data:application/octet-stream;base64,"
        }
    ]
}
