{
    "asset" : {
        "generator" : "Khronos glTF Blender I/O v1.7.33",
        "version" : "2.0"
    },
    "scene" : 0,
    "scenes" : [
        {
            "name" : "Scene",
            "nodes" : [
                0
            ]
        }
    ],
    "nodes" : [
        {
            "mesh" : 0,
            "name" : "Crystal_type1",
            "rotation" : [
                0.7071068286895752,
                0,
                0,
                0.7071067094802856
            ],
            "scale" : [
                2.322251319885254,
                2.322251319885254,
                2.322251319885254
            ],
            "translation" : [
                0,
                3.22190260887146,
                0
            ]
        }
    ],
    "materials" : [
        {
            "doubleSided" : true,
            "emissiveFactor" : [
                1,
                1,
                1
            ],
            "emissiveTexture" : {
                "index" : 0
            },
            "name" : "Crystal_type_1_",
            "pbrMetallicRoughness" : {
                "baseColorTexture" : {
                    "index" : 1
                },
                "metallicFactor" : 0,
                "metallicRoughnessTexture" : {
                    "index" : 2
                }
            }
        }
    ],
    "meshes" : [
        {
            "name" : "Mesh",
            "primitives" : [
                {
                    "attributes" : {
                        "POSITION" : 0,
                        "NORMAL" : 1,
                        "TEXCOORD_0" : 2
                    },
                    "indices" : 3,
                    "material" : 0
                }
            ]
        }
    ],
    "textures" : [
        {
            "sampler" : 0,
            "source" : 0
        },
        {
            "sampler" : 0,
            "source" : 1
        },
        {
            "sampler" : 0,
            "source" : 2
        }
    ],
    "images" : [
        {
            "bufferView" : 4,
            "mimeType" : "image/png",
            "name" : "Crystal_type_1_Emissive"
        },
        {
            "bufferView" : 5,
            "mimeType" : "image/png",
            "name" : "Crystal_type_1_Base_Color"
        },
        {
            "bufferView" : 6,
            "mimeType" : "image/png",
            "name" : "Crystal_type_1_Roughness"
        }
    ],
    "accessors" : [
        {
            "bufferView" : 0,
            "componentType" : 5126,
            "count" : 773,
            "max" : [
                1.110300064086914,
                1.334836721420288,
                1.410013198852539
            ],
            "min" : [
                -1.110300064086914,
                -1.334836721420288,
                -1.410013198852539
            ],
            "type" : "VEC3"
        },
        {
            "bufferView" : 1,
            "componentType" : 5126,
            "count" : 773,
            "type" : "VEC3"
        },
        {
            "bufferView" : 2,
            "componentType" : 5126,
            "count" : 773,
            "type" : "VEC2"
        },
        {
            "bufferView" : 3,
            "componentType" : 5123,
            "count" : 1236,
            "type" : "SCALAR"
        }
    ],
    "bufferViews" : [
        {
            "buffer" : 0,
            "byteLength" : 9276,
            "byteOffset" : 0
        },
        {
            "buffer" : 0,
            "byteLength" : 9276,
            "byteOffset" : 9276
        },
        {
            "buffer" : 0,
            "byteLength" : 6184,
            "byteOffset" : 18552
        },
        {
            "buffer" : 0,
            "byteLength" : 2472,
            "byteOffset" : 24736
        },
        {
            "buffer" : 0,
            "byteLength" : 11622,
            "byteOffset" : 27208
        },
        {
            "buffer" : 0,
            "byteLength" : 1087084,
            "byteOffset" : 38832
        },
        {
            "buffer" : 0,
            "byteLength" : 35160,
            "byteOffset" : 1125916
        }
    ],
    "samplers" : [
        {
            "magFilter" : 9729,
            "minFilter" : 9987
        }
    ],
    "buffers" : [
        {
            "byteLength" : 1161076,
            "uri" : "data:application/octet-stream;base64,"
        }
    ]
}
