{
    "asset" : {
        "generator" : "Khronos glTF Blender I/O v1.7.33",
        "version" : "2.0"
    },
    "scene" : 0,
    "scenes" : [
        {
            "name" : "Scene",
            "nodes" : [
                0
            ]
        }
    ],
    "nodes" : [
        {
            "mesh" : 0,
            "name" : "Crystal_type2",
            "rotation" : [
                0.7071068286895752,
                0,
                0,
                0.7071067094802856
            ],
            "scale" : [
                0.7808188199996948,
                0.7808188199996948,
                0.7808188199996948
            ],
            "translation" : [
                0,
                1.040704369544983,
                0
            ]
        }
    ],
    "materials" : [
        {
            "doubleSided" : true,
            "emissiveFactor" : [
                1,
                1,
                1
            ],
            "emissiveTexture" : {
                "index" : 0
            },
            "name" : "Crystal_type_2_",
            "normalTexture" : {
                "index" : 1
            },
            "pbrMetallicRoughness" : {
                "baseColorTexture" : {
                    "index" : 2
                },
                "metallicRoughnessTexture" : {
                    "index" : 3
                }
            }
        }
    ],
    "meshes" : [
        {
            "name" : "Mesh",
            "primitives" : [
                {
                    "attributes" : {
                        "POSITION" : 0,
                        "NORMAL" : 1,
                        "TEXCOORD_0" : 2
                    },
                    "indices" : 3,
                    "material" : 0
                }
            ]
        }
    ],
    "textures" : [
        {
            "sampler" : 0,
            "source" : 0
        },
        {
            "sampler" : 0,
            "source" : 1
        },
        {
            "sampler" : 0,
            "source" : 2
        },
        {
            "sampler" : 0,
            "source" : 3
        }
    ],
    "images" : [
        {
            "bufferView" : 4,
            "mimeType" : "image/png",
            "name" : "Crystal_type_2_Emissive"
        },
        {
            "bufferView" : 5,
            "mimeType" : "image/png",
            "name" : "Crystal_type_2_Normal_OpenGL"
        },
        {
            "bufferView" : 6,
            "mimeType" : "image/png",
            "name" : "Crystal_type_2_Base_Color"
        },
        {
            "bufferView" : 7,
            "mimeType" : "image/png",
            "name" : "Crystal_type_2_Metallic-Crystal_type_2_Roughness"
        }
    ],
    "accessors" : [
        {
            "bufferView" : 0,
            "componentType" : 5126,
            "count" : 541,
            "max" : [
                0.7552587985992432,
                0.7074510455131531,
                1.3374061584472656
            ],
            "min" : [
                -0.7552587985992432,
                -0.7074510455131531,
                -1.3374061584472656
            ],
            "type" : "VEC3"
        },
        {
            "bufferView" : 1,
            "componentType" : 5126,
            "count" : 541,
            "type" : "VEC3"
        },
        {
            "bufferView" : 2,
            "componentType" : 5126,
            "count" : 541,
            "type" : "VEC2"
        },
        {
            "bufferView" : 3,
            "componentType" : 5123,
            "count" : 954,
            "type" : "SCALAR"
        }
    ],
    "bufferViews" : [
        {
            "buffer" : 0,
            "byteLength" : 6492,
            "byteOffset" : 0
        },
        {
            "buffer" : 0,
            "byteLength" : 6492,
            "byteOffset" : 6492
        },
        {
            "buffer" : 0,
            "byteLength" : 4328,
            "byteOffset" : 12984
        },
        {
            "buffer" : 0,
            "byteLength" : 1908,
            "byteOffset" : 17312
        },
        {
            "buffer" : 0,
            "byteLength" : 342530,
            "byteOffset" : 19220
        },
        {
            "buffer" : 0,
            "byteLength" : 517303,
            "byteOffset" : 361752
        },
        {
            "buffer" : 0,
            "byteLength" : 1631362,
            "byteOffset" : 879056
        },
        {
            "buffer" : 0,
            "byteLength" : 70228,
            "byteOffset" : 2510420
        }
    ],
    "samplers" : [
        {
            "magFilter" : 9729,
            "minFilter" : 9987
        }
    ],
    "buffers" : [
        {
            "byteLength" : 2580648,
            "uri" : "data:application/octet-stream;base64,"
        }
    ]
}
