{
    "asset" : {
        "generator" : "Khronos glTF Blender I/O v1.7.33",
        "version" : "2.0"
    },
    "scene" : 0,
    "scenes" : [
        {
            "name" : "Scene",
            "nodes" : [
                0,
                1,
                2,
                3
            ]
        }
    ],
    "nodes" : [
        {
            "mesh" : 0,
            "name" : "eagle_low_quads_sub",
            "scale" : [
                1.447396993637085,
                1.447396993637085,
                1.447396993637085
            ],
            "translation" : [
                0,
                0,
                1.0324393510818481
            ]
        },
        {
            "mesh" : 1,
            "name" : "man_low_quads_sub",
            "rotation" : [
                0,
                0.9994723200798035,
                0,
                0.032481275498867035
            ],
            "translation" : [
                -0.042658790946006775,
                0,
                -1.029923439025879
            ]
        },
        {
            "mesh" : 2,
            "name" : "sheep_low_quads_sub",
            "rotation" : [
                0,
                -0.6302314400672913,
                0,
                0.7764073014259338
            ],
            "translation" : [
                -1.0920394659042358,
                0,
                0
            ]
        },
        {
            "mesh" : 3,
            "name" : "tiger_low_quads_sub",
            "rotation" : [
                0,
                0.5447605848312378,
                0,
                0.8385916352272034
            ],
            "translation" : [
                0.9788349270820618,
                0,
                0.06524743884801865
            ]
        }
    ],
    "materials" : [
        {
            "doubleSided" : true,
            "name" : "eagle",
            "pbrMetallicRoughness" : {
                "baseColorTexture" : {
                    "index" : 0
                },
                "metallicFactor" : 0,
                "roughnessFactor" : 0
            }
        },
        {
            "doubleSided" : true,
            "name" : "man",
            "pbrMetallicRoughness" : {
                "baseColorTexture" : {
                    "index" : 1
                },
                "metallicFactor" : 0,
                "roughnessFactor" : 0.4000000059604645
            }
        },
        {
            "doubleSided" : true,
            "name" : "sheep",
            "pbrMetallicRoughness" : {
                "baseColorTexture" : {
                    "index" : 2
                },
                "metallicFactor" : 0,
                "roughnessFactor" : 0
            }
        },
        {
            "doubleSided" : true,
            "name" : "tiger",
            "pbrMetallicRoughness" : {
                "baseColorTexture" : {
                    "index" : 3
                },
                "metallicFactor" : 0,
                "roughnessFactor" : 0
            }
        }
    ],
    "meshes" : [
        {
            "name" : "eagle_low_quads_sub",
            "primitives" : [
                {
                    "attributes" : {
                        "POSITION" : 0,
                        "NORMAL" : 1,
                        "TEXCOORD_0" : 2
                    },
                    "indices" : 3,
                    "material" : 0
                }
            ]
        },
        {
            "name" : "man_low_quads_sub",
            "primitives" : [
                {
                    "attributes" : {
                        "POSITION" : 4,
                        "NORMAL" : 5,
                        "TEXCOORD_0" : 6
                    },
                    "indices" : 7,
                    "material" : 1
                }
            ]
        },
        {
            "name" : "sheep_low_quads_sub",
            "primitives" : [
                {
                    "attributes" : {
                        "POSITION" : 8,
                        "NORMAL" : 9,
                        "TEXCOORD_0" : 10
                    },
                    "indices" : 11,
                    "material" : 2
                }
            ]
        },
        {
            "name" : "tiger_low_quads_sub",
            "primitives" : [
                {
                    "attributes" : {
                        "POSITION" : 12,
                        "NORMAL" : 13,
                        "TEXCOORD_0" : 14
                    },
                    "indices" : 15,
                    "material" : 3
                }
            ]
        }
    ],
    "textures" : [
        {
            "sampler" : 0,
            "source" : 0
        },
        {
            "sampler" : 0,
            "source" : 1
        },
        {
            "sampler" : 0,
            "source" : 2
        },
        {
            "sampler" : 0,
            "source" : 3
        }
    ],
    "images" : [
        {
            "bufferView" : 4,
            "mimeType" : "image/png",
            "name" : "eagle"
        },
        {
            "bufferView" : 9,
            "mimeType" : "image/png",
            "name" : "man"
        },
        {
            "bufferView" : 14,
            "mimeType" : "image/png",
            "name" : "sheep"
        },
        {
            "bufferView" : 19,
            "mimeType" : "image/png",
            "name" : "tiger"
        }
    ],
    "accessors" : [
        {
            "bufferView" : 0,
            "componentType" : 5126,
            "count" : 16772,
            "max" : [
                0.2988804876804352,
                1.6141624450683594,
                0.3345155119895935
            ],
            "min" : [
                -0.29888051748275757,
                -0.06732463836669922,
                -0.4581466615200043
            ],
            "type" : "VEC3"
        },
        {
            "bufferView" : 1,
            "componentType" : 5126,
            "count" : 16772,
            "type" : "VEC3"
        },
        {
            "bufferView" : 2,
            "componentType" : 5126,
            "count" : 16772,
            "type" : "VEC2"
        },
        {
            "bufferView" : 3,
            "componentType" : 5123,
            "count" : 66048,
            "type" : "SCALAR"
        },
        {
            "bufferView" : 5,
            "componentType" : 5126,
            "count" : 4466,
            "max" : [
                0.7921149730682373,
                3.3490161895751953,
                0.39734190702438354
            ],
            "min" : [
                -0.7921149730682373,
                -0.1492176055908203,
                -0.3668534457683563
            ],
            "type" : "VEC3"
        },
        {
            "bufferView" : 6,
            "componentType" : 5126,
            "count" : 4466,
            "type" : "VEC3"
        },
        {
            "bufferView" : 7,
            "componentType" : 5126,
            "count" : 4466,
            "type" : "VEC2"
        },
        {
            "bufferView" : 8,
            "componentType" : 5123,
            "count" : 19368,
            "type" : "SCALAR"
        },
        {
            "bufferView" : 10,
            "componentType" : 5126,
            "count" : 8315,
            "max" : [
                0.46548721194267273,
                1.9702630043029785,
                1.1342965364456177
            ],
            "min" : [
                -0.4654872417449951,
                -0.03026149608194828,
                -1.2086083889007568
            ],
            "type" : "VEC3"
        },
        {
            "bufferView" : 11,
            "componentType" : 5126,
            "count" : 8315,
            "type" : "VEC3"
        },
        {
            "bufferView" : 12,
            "componentType" : 5126,
            "count" : 8315,
            "type" : "VEC2"
        },
        {
            "bufferView" : 13,
            "componentType" : 5123,
            "count" : 32688,
            "type" : "SCALAR"
        },
        {
            "bufferView" : 15,
            "componentType" : 5126,
            "count" : 12538,
            "max" : [
                0.4987010657787323,
                2.4195518493652344,
                0.860971987247467
            ],
            "min" : [
                -0.4987010955810547,
                -0.02852916717529297,
                -0.8509385585784912
            ],
            "type" : "VEC3"
        },
        {
            "bufferView" : 16,
            "componentType" : 5126,
            "count" : 12538,
            "type" : "VEC3"
        },
        {
            "bufferView" : 17,
            "componentType" : 5126,
            "count" : 12538,
            "type" : "VEC2"
        },
        {
            "bufferView" : 18,
            "componentType" : 5123,
            "count" : 49104,
            "type" : "SCALAR"
        }
    ],
    "bufferViews" : [
        {
            "buffer" : 0,
            "byteLength" : 201264,
            "byteOffset" : 0
        },
        {
            "buffer" : 0,
            "byteLength" : 201264,
            "byteOffset" : 201264
        },
        {
            "buffer" : 0,
            "byteLength" : 134176,
            "byteOffset" : 402528
        },
        {
            "buffer" : 0,
            "byteLength" : 132096,
            "byteOffset" : 536704
        },
        {
            "buffer" : 0,
            "byteLength" : 261556,
            "byteOffset" : 668800
        },
        {
            "buffer" : 0,
            "byteLength" : 53592,
            "byteOffset" : 930356
        },
        {
            "buffer" : 0,
            "byteLength" : 53592,
            "byteOffset" : 983948
        },
        {
            "buffer" : 0,
            "byteLength" : 35728,
            "byteOffset" : 1037540
        },
        {
            "buffer" : 0,
            "byteLength" : 38736,
            "byteOffset" : 1073268
        },
        {
            "buffer" : 0,
            "byteLength" : 275446,
            "byteOffset" : 1112004
        },
        {
            "buffer" : 0,
            "byteLength" : 99780,
            "byteOffset" : 1387452
        },
        {
            "buffer" : 0,
            "byteLength" : 99780,
            "byteOffset" : 1487232
        },
        {
            "buffer" : 0,
            "byteLength" : 66520,
            "byteOffset" : 1587012
        },
        {
            "buffer" : 0,
            "byteLength" : 65376,
            "byteOffset" : 1653532
        },
        {
            "buffer" : 0,
            "byteLength" : 251603,
            "byteOffset" : 1718908
        },
        {
            "buffer" : 0,
            "byteLength" : 150456,
            "byteOffset" : 1970512
        },
        {
            "buffer" : 0,
            "byteLength" : 150456,
            "byteOffset" : 2120968
        },
        {
            "buffer" : 0,
            "byteLength" : 100304,
            "byteOffset" : 2271424
        },
        {
            "buffer" : 0,
            "byteLength" : 98208,
            "byteOffset" : 2371728
        },
        {
            "buffer" : 0,
            "byteLength" : 178944,
            "byteOffset" : 2469936
        }
    ],
    "samplers" : [
        {
            "magFilter" : 9729,
            "minFilter" : 9987
        }
    ],
    "buffers" : [
        {
            "byteLength" : 2648880,
            "uri" : "data:application/octet-stream;base64,"
        }
    ]
}
